<svg fill="none" height="374" viewBox="0 0 400 374" width="400" xmlns="http://www.w3.org/2000/svg" xmlns:xlink="http://www.w3.org/1999/xlink"><clipPath id="a"><path d="m0 0h400v374.228h-400z"/></clipPath><g clip-path="url(#a)"><path d="m372.609 300.291-345.2175 73.32c-15.1265 3.214-27.3915-6.442-27.3915-21.568v-244.897c0-15.1268 12.265-30.0011 27.3915-33.2155l345.2175-73.300241c15.126-3.214369 27.391 6.441341 27.391 21.567841v244.8779c0 15.133-12.259 30.001-27.391 33.215z" fill="#543864"/><path d="m370.787 139.655c.032-.353.05-.7.05-1.04v-98.4354c0-6.2396-5.08-10.2418-11.344-8.912l-22.299 4.7396c-3.113.7319-5.896 2.4765-7.91 4.9603l-.069.0819-8.333 10.0843-9.58 11.5969c-2.315 2.7142-3.62 6.1457-3.693 9.7125v95.2779.17.17.214.221l5.338 53.749c.435 4.412 3.152 7.501 6.971 8.572l-8.565 10.469c-2.34 2.737-3.658 6.2-3.732 9.8v19.249c0 7.027 5.711 11.527 12.738 10.034l20.358-4.33c3.555-.823 6.729-2.821 9.006-5.673l9.618-11.653 8.194-9.921c2.092-2.452 3.274-5.551 3.347-8.773v-21.316c0-6.302-5.125-10.336-11.421-8.994l-4.065.864 6.87-8.332c.075-.082.138-.171.208-.253l.63-.75h-.069c1.618-2.069 2.623-4.553 2.899-7.166zm-11.345 79.174c.277-.079.569-.091.852-.036.282.056.547.178.773.357s.407.408.526.671c.12.262.175.548.162.836v21.322c-.028.656-.269 1.285-.686 1.792s-.988.865-1.627 1.019l-22.015 4.677c-.277.079-.569.091-.852.035s-.549-.178-.775-.356c-.226-.179-.407-.408-.528-.67-.12-.262-.177-.549-.164-.837v-21.322c.028-.656.27-1.285.689-1.791s.991-.862 1.63-1.014zm2.288-78.279v.202l-4.878 54.43c-.072.59-.322 1.145-.717 1.59-.396.445-.917.759-1.495.899l-12.555 2.666c-.249.071-.51.086-.765.043-.255-.042-.497-.141-.709-.289-.211-.148-.388-.341-.515-.566-.128-.224-.205-.474-.224-.732l-4.872-52.356c0-.07 0-.133 0-.202v-98.4291c.026-.6255.253-1.226.648-1.7112.396-.4853.938-.8292 1.546-.9801l22.311-4.7459c.266-.0764.546-.0884.817-.0351s.525.1705.742.3417c.217.1713.39.3917.505.6431.114.2514.168.5264.155.8025z" fill="#eb6265"/><g fill="#f9bb6b"><path d="m36.0576 150.596c.7398-.176 1.4017-.589 1.8852-1.176.4834-.587.7621-1.316.7935-2.076v-45.24c.0136-.333-.0517-.664-.1908-.967-.1391-.302-.348-.567-.6094-.773s-.568-.347-.8945-.412c-.3266-.0646-.6638-.0509-.984.0401-.7385.1829-1.3972.6029-1.8761 1.1939-.4788.591-.7517 1.323-.7773 2.084v45.215c-.0124.33.0528.658.1906.958.1377.3.344.563.6023.769.2582.205.5612.347.8844.414s.6576.057.9761-.03z"/><path d="m43.5642 126.394 22.0909-4.695c.7398-.177 1.4017-.59 1.8851-1.177.4835-.587.7622-1.316.7936-2.076.0136-.332-.0518-.663-.1909-.966-.1391-.302-.3479-.567-.6093-.773s-.568-.347-.8945-.412c-.3266-.065-.6638-.051-.984.04l-22.0594 4.695c-.7392.178-1.4005.591-1.8839 1.178-.4833.587-.7623 1.315-.7947 2.075-.0122.329.0531.656.1905.955.1373.3.343.563.6005.768s.5595.348.8819.415.656.058.9742-.027z"/><path d="m73.1616 142.712c.7404-.176 1.4032-.589 1.8877-1.176.4846-.587.7645-1.316.7973-2.076v-45.2159c.0139-.3333-.0515-.6652-.1909-.9682-.1394-.3031-.3489-.5686-.6111-.7748s-.5697-.3472-.8971-.4112c-.3274-.0641-.6653-.0494-.9859.0428-.7392.1773-1.4006.5907-1.8839 1.1775s-.7623 1.3151-.7947 2.0746v45.2152c-.0137.333.0517.664.1908.966.1391.303.3479.568.6093.774.2615.206.568.347.8946.412.3265.064.6637.051.9839-.04z"/><path d="m91.9247 138.722 37.1103-7.885c.739-.177 1.4-.59 1.884-1.177.483-.587.762-1.315.795-2.075.013-.332-.052-.663-.191-.966-.139-.302-.348-.567-.61-.773-.261-.206-.568-.348-.894-.412-.327-.065-.664-.051-.984.04l-34.4317 7.317v-17.244l16.9547-3.599c.739-.177 1.4-.59 1.883-1.177.484-.587.763-1.315.795-2.075.014-.332-.052-.664-.191-.966s-.348-.568-.609-.774-.568-.347-.894-.411c-.327-.065-.664-.051-.984.04l-16.9231 3.599v-17.2446l34.4311-7.3237c.74-.1752 1.401-.5871 1.885-1.173.483-.586.762-1.3139.794-2.0729.014-.3326-.052-.6637-.191-.9661s-.348-.5675-.609-.7736c-.262-.2061-.568-.3472-.895-.4118-.326-.0646-.663-.0509-.984.0401l-37.1098 7.8847c-.7404.1762-1.4031.589-1.8877 1.1759-.4845.5869-.7644 1.3159-.7972 2.0762v45.2158c-.0125.33.0528.658.1905.958.1378.299.3441.563.6023.768.2583.206.5612.348.8844.415.3232.066.6576.056.9762-.03z"/><path d="m146.796 127.056 37.11-7.885c.74-.176 1.402-.589 1.885-1.176.484-.587.762-1.316.794-2.076.013-.333-.052-.664-.191-.966-.139-.303-.348-.568-.609-.774-.262-.206-.568-.347-.895-.411-.327-.065-.664-.051-.984.04l-34.431 7.317v-42.5305c.013-.3326-.052-.6637-.191-.9661s-.348-.5675-.61-.7736c-.261-.2061-.568-.3472-.894-.4118-.327-.0646-.664-.0509-.984.0401-.739.1752-1.401.5871-1.885 1.173-.483.586-.762 1.3138-.794 2.0729v45.222c-.014.332.051.663.191.966.139.302.348.567.609.772.262.206.569.347.895.41.327.064.664.049.984-.043z"/><path d="m201.686 115.396 1.84-.391 4.664-.989 30.606-6.511c.739-.175 1.401-.587 1.885-1.173.483-.586.762-1.314.794-2.073.015-.333-.049-.665-.188-.968s-.348-.569-.61-.775c-.261-.207-.569-.348-.896-.412s-.664-.049-.985.044l-30.606 6.504-1.506.321-2.313.492v-42.5368c.014-.3333-.051-.6651-.191-.9682-.139-.303-.349-.5686-.611-.7748s-.57-.3471-.897-.4112c-.327-.064-.665-.0494-.986.0428-.74.1765-1.402.5896-1.885 1.1766-.484.587-.762 1.3158-.794 2.0756v45.215c-.013.333.052.664.191.967.139.302.348.567.61.773.261.206.568.347.894.412.327.065.664.051.984-.04z"/><path d="m269.881 100.9c13.563-2.8869 24.581-16.5764 24.581-30.5242s-11.043-22.9418-24.581-20.0552c-13.538 2.8867-24.612 16.5761-24.612 30.5177 0 13.9415 11.042 22.9417 24.612 20.0617zm0-45.2158c10.589-2.2563 19.242 4.8216 19.242 15.8324s-8.653 21.7632-19.242 24.0195c-10.588 2.2564-19.248-4.8467-19.248-15.8386s8.634-21.7632 19.248-24.0133z"/></g><path d="m70.7098 153.994c-3.6261-.895-7.4103-.936-11.0549-.12-14.0361 2.981-25.507 16.488-26.2129 30.505h-.0693v132.06h.0693c.7059 13.708 12.1768 22.343 26.2129 19.356 14.4962-3.083 26.2822-17.371 26.2822-31.861v-1.348l-15.2273 3.233v1.349c0 6.094-4.9602 12.107-11.0549 13.406-6.0947 1.298-11.0549-2.61-11.0549-8.705v-129.368c0-6.095 4.9602-12.108 11.0549-13.406 6.0947-1.299 11.0549 2.609 11.0549 8.704v1.349l15.2273-3.234v-27.631l-15.2273 3.24z" fill="#eb6265"/><path d="m286.879 105.57-7.607 1.62-13.878 2.949v15.228l6.264-1.336v91.798l-22.362-101.063v-1.204l-.258.057-.05-.246-1.185.504-13.734 2.918-6.265 1.336v15.221l6.265-1.33v151.467l-6.265 1.329v15.221l27.751-5.899v-15.221l-6.259 1.33v-91.855l22.633 102.267 21.215-4.506v-15.221l-6.265 1.329v-151.466l6.265-1.33v-15.227z" fill="#eb6265"/><path d="m143.348 151.309 8.118-1.727v-15.228l-56.6609 12.045v15.227l8.1179-1.727-8.0423 153.155-6.3027 1.349v15.227l27.732-5.899v-15.208l-6.189 1.311 2.035-38.749 21.99-4.67 2.036 37.885-6.195 1.311v15.227l27.731-5.899v-15.221l-6.302 1.342zm-10.027 100.048-20.371 4.33 5.2-99.027 9.971-2.118z" fill="#eb6265"/><path d="m161.777 132.161v15.227l6.265-1.33v97.919 15.227 38.321l-6.265 1.329v15.221l59.082-12.554v-.064-15.157-12.467l-15.228 3.233v12.467l-22.361 4.752v-38.314l25.059-5.332v-15.221l-25.059 5.326v-97.925l22.361-4.752v12.403l15.228-3.233v-27.631z" fill="#eb6265"/></g></svg>